<?xml version="1.0" encoding="UTF-8"?>
<svg id="Capa_1" data-name="Capa 1" xmlns="http://www.w3.org/2000/svg" viewBox="0 0 1251.99 153.54">
  <defs>
    <style>
      .cls-1 {
        opacity: .2;
      }

      .cls-1, .cls-2, .cls-3, .cls-4, .cls-5 {
        stroke-width: 0px;
      }

      .cls-1, .cls-2, .cls-4 {
        fill: #fa119d;
      }

      .cls-2 {
        opacity: .15;
      }

      .cls-3 {
        opacity: .61;
      }

      .cls-3, .cls-5 {
        fill: #01ffff;
      }
    </style>
  </defs>
  <polygon class="cls-3" points="1198.99 136.44 17.1 136.44 17.1 55.04 55.04 17.1 1236.94 17.1 1236.94 98.5 1198.99 136.44"/>
  <polygon class="cls-4" points="1205.23 151.5 1062.28 151.5 1062.28 149.45 1204.38 149.45 1249.94 103.89 1249.94 56.47 1251.99 56.47 1251.99 104.74 1205.23 151.5"/>
  <polygon class="cls-4" points="4.09 134.29 2.05 134.29 2.05 48.81 2.35 48.51 48.81 2.05 152.41 2.05 152.41 4.09 49.65 4.09 4.09 49.65 4.09 134.29"/>
  <polygon class="cls-4" points="1206.08 153.54 1129.88 153.54 1134.99 147.41 1203.53 147.41 1227.29 123.65 1228.79 130.83 1206.08 153.54"/>
  <polygon class="cls-4" points="6.14 115.65 0 117.98 0 69.04 6.14 72.31 6.14 115.65"/>
  <polygon class="cls-4" points="26.12 30.52 21.78 26.18 47.96 0 98.64 0 103.41 6.14 50.5 6.14 26.12 30.52"/>
  <path class="cls-5" d="m1199.42,137.47H16.08V54.62L54.62,16.08h1183.34v82.85l-38.54,38.54Zm-1181.3-2.05h1180.45l37.34-37.34V18.12H55.47L18.12,55.47v79.96Z"/>
  <g>
    <rect class="cls-4" x="1190.34" y="124.46" width="3.36" height="6.37"/>
    <rect class="cls-4" x="1183.21" y="124.46" width="3.36" height="6.37"/>
    <rect class="cls-4" x="1176.08" y="124.46" width="3.36" height="6.37"/>
    <rect class="cls-4" x="1168.95" y="124.46" width="3.36" height="6.37"/>
    <rect class="cls-4" x="1161.82" y="124.46" width="3.36" height="6.37"/>
    <rect class="cls-4" x="1154.69" y="124.46" width="3.36" height="6.37"/>
    <rect class="cls-4" x="1147.56" y="124.46" width="3.36" height="6.37"/>
    <rect class="cls-4" x="1140.43" y="124.46" width="3.36" height="6.37"/>
    <rect class="cls-1" x="1133.3" y="124.46" width="3.36" height="6.37"/>
    <rect class="cls-1" x="1126.17" y="124.46" width="3.36" height="6.37"/>
    <rect class="cls-1" x="1119.05" y="124.46" width="3.36" height="6.37"/>
    <rect class="cls-1" x="1111.92" y="124.46" width="3.36" height="6.37"/>
    <rect class="cls-1" x="1104.79" y="124.46" width="3.36" height="6.37"/>
    <rect class="cls-1" x="1097.66" y="124.46" width="3.36" height="6.37"/>
    <rect class="cls-1" x="1090.53" y="124.46" width="3.36" height="6.37"/>
    <rect class="cls-1" x="1083.4" y="124.46" width="3.36" height="6.37"/>
    <rect class="cls-1" x="1076.27" y="124.46" width="3.36" height="6.37"/>
    <rect class="cls-1" x="1069.14" y="124.46" width="3.36" height="6.37"/>
    <rect class="cls-1" x="1062.01" y="124.46" width="3.36" height="6.37"/>
    <rect class="cls-1" x="1054.88" y="124.46" width="3.36" height="6.37"/>
    <rect class="cls-1" x="1047.75" y="124.46" width="3.36" height="6.37"/>
    <rect class="cls-1" x="1040.62" y="124.46" width="3.36" height="6.37"/>
    <rect class="cls-1" x="1033.49" y="124.46" width="3.36" height="6.37"/>
    <rect class="cls-1" x="1026.36" y="124.46" width="3.36" height="6.37"/>
  </g>
  <polygon class="cls-4" points="1236.94 25.43 1154.47 25.43 1142.11 17.1 1142.11 17.1 1236.94 17.1 1236.94 25.43"/>
  <path class="cls-4" d="m162.8,3.07c0,1.06-.86,1.93-1.93,1.93s-1.93-.86-1.93-1.93.86-1.93,1.93-1.93,1.93.86,1.93,1.93Z"/>
  <path class="cls-4" d="m172.99,3.07c0,1.06-.86,1.93-1.93,1.93s-1.93-.86-1.93-1.93.86-1.93,1.93-1.93,1.93.86,1.93,1.93Z"/>
  <path class="cls-4" d="m183.19,3.07c0,1.06-.86,1.93-1.93,1.93s-1.93-.86-1.93-1.93.86-1.93,1.93-1.93,1.93.86,1.93,1.93Z"/>
  <path class="cls-2" d="m193.38,3.07c0,1.06-.86,1.93-1.93,1.93s-1.93-.86-1.93-1.93.86-1.93,1.93-1.93,1.93.86,1.93,1.93Z"/>
  <path class="cls-2" d="m1027.32,3.07c0,1.06-.86,1.93-1.93,1.93s-1.93-.86-1.93-1.93.86-1.93,1.93-1.93,1.93.86,1.93,1.93Z"/>
  <path class="cls-2" d="m1037.51,3.07c0,1.06-.86,1.93-1.93,1.93s-1.93-.86-1.93-1.93.86-1.93,1.93-1.93,1.93.86,1.93,1.93Z"/>
  <path class="cls-4" d="m1051.32,150.47c0,1.06.86,1.93,1.93,1.93s1.93-.86,1.93-1.93-.86-1.93-1.93-1.93-1.93.86-1.93,1.93Z"/>
  <path class="cls-4" d="m1041.13,150.47c0,1.06.86,1.93,1.93,1.93s1.93-.86,1.93-1.93-.86-1.93-1.93-1.93-1.93.86-1.93,1.93Z"/>
  <path class="cls-4" d="m1030.93,150.47c0,1.06.86,1.93,1.93,1.93s1.93-.86,1.93-1.93-.86-1.93-1.93-1.93-1.93.86-1.93,1.93Z"/>
  <path class="cls-2" d="m1020.74,150.47c0,1.06.86,1.93,1.93,1.93s1.93-.86,1.93-1.93-.86-1.93-1.93-1.93-1.93.86-1.93,1.93Z"/>
  <path class="cls-2" d="m186.8,150.47c0,1.06.86,1.93,1.93,1.93s1.93-.86,1.93-1.93-.86-1.93-1.93-1.93-1.93.86-1.93,1.93Z"/>
  <path class="cls-2" d="m176.61,150.47c0,1.06.86,1.93,1.93,1.93s1.93-.86,1.93-1.93-.86-1.93-1.93-1.93-1.93.86-1.93,1.93Z"/>
  <rect class="cls-4" x="1030.5" y="23.38" width="123.97" height="2.05"/>
</svg>